<?xml version="1.0" encoding="UTF-8"?>
<svg version="1.1" xmlns="http://www.w3.org/2000/svg" width="46" height="46">
<path d="M0 0 C15.18 0 30.36 0 46 0 C46 15.18 46 30.36 46 46 C30.82 46 15.64 46 0 46 C0 30.82 0 15.64 0 0 Z " fill="#F8F9FA" transform="translate(0,0)"/>
<path d="M0 0 C2.56314499 -0.08132187 5.12368418 -0.14064175 7.6875 -0.1875 C8.40873047 -0.21263672 9.12996094 -0.23777344 9.87304688 -0.26367188 C14.46146874 -0.32652697 17.36934474 0.13296248 21 3 C22.63023814 6.26047629 22.4673535 8.37801035 22 12 C18.07062113 18.28207907 11.91471253 22.70814511 6 27 C5.34 26.67 4.68 26.34 4 26 C4.55429688 25.39671875 5.10859375 24.7934375 5.6796875 24.171875 C6.40414063 23.37265625 7.12859375 22.5734375 7.875 21.75 C8.59429687 20.96109375 9.31359375 20.1721875 10.0546875 19.359375 C11.82301999 17.21465046 13.11527885 15.62365584 14 13 C13.67 11.35 13.34 9.7 13 8 C8.71 7.67 4.42 7.34 0 7 C0 4.69 0 2.38 0 0 Z " fill="#2C95D0" transform="translate(6,5)"/>
<path d="M0 0 C0.94875 0.825 1.8975 1.65 2.875 2.5 C6.83994804 5.9113208 10.93969503 9.14059596 15.05859375 12.36328125 C15.69925781 12.90339844 16.33992188 13.44351563 17 14 C17 14.33 17 14.66 17 15 C9.54810899 15.59141992 5.11078891 14.31421697 -1 10 C-3.5625 7.6875 -3.5625 7.6875 -5 6 C-3.86695008 2.60085025 -2.87481525 1.94745549 0 0 Z " fill="#94D1E3" transform="translate(24,25)"/>
<path d="M0 0 C7.59 0 15.18 0 23 0 C18.5 3.375 18.5 3.375 14.453125 3.29296875 C13.60878906 3.28330078 12.76445312 3.27363281 11.89453125 3.26367188 C11.02183594 3.23853516 10.14914063 3.21339844 9.25 3.1875 C8.36183594 3.17396484 7.47367188 3.16042969 6.55859375 3.14648438 C4.37177422 3.11121309 2.18620034 3.06192752 0 3 C0 2.01 0 1.02 0 0 Z " fill="#DADBDC" transform="translate(11,43)"/>
<path d="M0 0 C0 3.57575896 -1.08840607 5.05295935 -3 8 C-4.32 7.34 -5.64 6.68 -7 6 C-4.69 4.02 -2.38 2.04 0 0 Z " fill="#DAEDF6" transform="translate(25,20)"/>
</svg>
