<svg width="1080" height="1080" viewBox="0 0 1080 1080" fill="none" xmlns="http://www.w3.org/2000/svg">
<path d="M1080 0H0V1080H1080V0Z" fill="#FEF2E5"/>
<path d="M536.036 35.5889C542.341 22.2978 557.432 13.2124 564.397 26.1696C566.194 29.514 567.779 32.9604 569.17 36.4221C574.646 50.8564 577.4 67.2709 572.021 82.1597C568.015 92.3849 564.807 102.978 563.446 113.928C558.284 148.088 570.315 184.985 596.537 207.892C603.319 213.746 610.901 220.368 620.404 220.271C629.941 220.876 638.31 213.129 640.254 204.083C643.851 192.657 639.412 180.235 643.7 168.96C648.97 154.169 661.066 143.024 674.036 134.844C691.532 123.937 712.008 118.051 732.571 117.445C753.015 116.103 774.236 111.764 790.89 99.1476V99.1476C802.608 90.6246 817.815 89.5024 817.976 103.991C817.994 105.623 817.98 107.243 817.943 108.843C817.187 124.619 812.133 140.503 802.489 153.098C796.009 160.748 787.164 165.942 780.662 173.592C760.391 194.897 748.565 224.382 750.11 253.9C751.157 268.54 754.689 283.277 762.033 296.056C767.141 304.777 778.848 308.565 787.931 303.912C797.024 298.934 802.035 289.402 806.614 280.507C812.662 269.287 824.499 262.686 836.357 259.267C862.622 252.375 891.025 257.265 914.796 269.903C933.587 279.155 954.485 286.621 975.75 284.089V284.089C989.975 282.505 1004.21 289.943 996.994 302.303C995.445 304.955 993.77 307.52 992.025 309.982C984.357 320.705 974.173 329.762 962.196 335.367C952.606 339.998 941.612 339.478 931.676 343.017C902.743 351.056 876.942 371.052 863.421 398.103C856.747 412.137 852.092 427.816 853.907 443.483C855.062 453.763 865.441 461.348 875.56 460.006C886.77 459.855 895.572 452.259 905.043 447.346C918.327 441.774 933.533 444.198 946.569 449.391C969.075 458.556 988.742 474.906 1001.41 495.724C1013.53 513.902 1028.86 531.702 1049.97 539.233V539.233C1061.96 543.924 1070 555.948 1059.08 562.773C1054.71 565.505 1050.08 567.826 1045.45 569.8C1034.69 574.096 1023.04 576.931 1011.38 576.108C998.613 575.21 987.435 568.09 974.886 566.132C939.527 558.157 899.946 568.675 874.944 595.423C869.199 602.261 862.298 609.013 860.57 618.156C858.55 627.04 863.691 636.865 872.309 639.981C886.025 646.062 901.933 639.191 915.325 646.386C933.08 655.086 944.992 672.29 952.66 690.014C959.669 705.639 961.656 722.865 962.444 739.831C964.55 759.167 969.41 779.379 982.521 794.311V794.311C990.122 803.018 990.61 818.267 979.073 818.96C963.427 819.899 947.212 815.694 933.717 808.259C922.485 802.697 916.437 791.249 907.56 783.004C887.04 762.878 858.648 750.013 829.672 750.954C816.183 750.576 802.834 753.951 790.501 759.253C783.621 762.186 776.753 767.001 774.722 774.597C772.12 782.56 775.759 791.379 781.85 796.692C790.35 805.207 803.342 807.761 810.653 817.64C820.244 829.932 823.3 845.816 824.131 861.04C823.905 879.933 819.92 898.933 811.118 915.748C800.221 937.194 791.43 962.135 797.866 986.275V986.275C800.319 997.22 795.282 1008.01 785.105 1003.3C779.787 1000.83 774.734 997.731 770.046 994.412C759.633 986.965 751.167 977.11 745.369 965.684C741.168 957.644 741.027 948.371 738.802 939.748C731.415 907.07 709.114 877.628 678.367 863.843C665.839 858.519 652.231 854.819 638.559 855.663C629.044 855.987 620.912 864.449 620.696 873.927C620.307 884.64 626.647 893.902 632.025 902.655C638.667 913.703 638.246 927.488 634.628 939.477C627.197 964.396 609.918 986.015 588.156 999.974C569.591 1012.14 551.383 1027.33 543.218 1048.63V1048.63C538.092 1061.04 525.539 1069.37 518.625 1057.87C516.586 1054.48 514.783 1050.96 513.184 1047.44C506.596 1031.94 503.032 1013.91 508.972 997.626C512.936 987.454 516.359 976.948 517.374 966.019C522.483 931.102 509.782 893.209 482.2 870.649C474.521 863.94 464.099 857.351 453.58 861.127C451.35 861.797 449.355 862.87 447.605 864.241C436.421 873.009 439.873 890.159 438.129 904.263C437.943 905.767 437.637 907.263 437.154 908.747C432.769 924.015 420.76 935.755 407.875 944.325C390.236 955.995 369.703 962.518 348.574 963.163C327.73 964.656 305.904 968.378 288.851 981.341C280.352 987.629 274.335 996.594 270.431 1006.33C270.314 1006.62 270.117 1006.88 269.86 1007.05V1007.05C269.062 1007.61 267.955 1007.32 267.552 1006.44C259.74 989.315 259.424 969.481 264.778 951.596C268.342 939.607 274.52 927.91 284.585 920.163C302.394 906.183 316.358 887.182 323.713 865.693C331.1 843.479 331.197 818.657 322.752 796.713C319.868 788.977 316.207 780.256 308.172 776.663C300.612 772.941 291.173 775.224 285.427 781.165C275.686 789.756 273.505 804.223 262.748 811.83C250.101 821.33 233.848 824.857 218.285 824.662C199.342 824.738 180.518 819.577 163.8 810.758C143.637 800.479 120.58 793.338 97.8568 797.86V797.86C85.9282 800.27 74.1142 794.351 79.5372 783.456C82.5938 777.316 86.4913 771.556 90.729 766.319C100.859 754.33 114.283 743.986 130.148 741.584C160.625 737.494 189.914 721.426 207.777 696.03C219.754 678.858 227.465 657.715 225.327 636.562C223.372 625.287 210.639 618.232 199.915 621.684C187.657 623.923 178.952 634.538 166.651 636.583C152.882 639.213 138.907 635.133 126.53 629.204C108.052 620.136 91.8306 606.156 80.7068 588.757C68.6434 570.125 53.5345 551.708 32.3346 543.398V543.398C20.2384 538.269 11.9038 524.831 23.1778 518.084C31.6312 513.025 41.0871 509.502 50.5646 507.41C61.818 504.716 73.8381 505.181 84.6163 509.574C110.233 519.853 139.587 521.563 165.744 512.279C186.476 505.042 204.263 491.186 216.374 472.839C222.368 464.031 221.579 450.203 212.086 444.143C197.69 434.47 178.985 443.635 164.222 435.206C147.093 426.344 135.451 409.616 127.967 392.271C122.267 378.729 119.1 364.252 118.625 349.563C117.34 329.047 113.139 307.699 100.665 290.884C95.7065 284.305 89.2522 278.845 81.8774 275.205C77.9623 273.273 77.0883 269.036 81.1064 267.328V267.328C100.47 260.187 122.34 262.416 140.98 270.726C149.48 274.459 157.115 280.215 162.645 287.746C181.566 311.399 209.689 328.323 240.144 330.822C258.136 332.25 276.658 329.545 292.847 321.311C300.72 317.351 307.578 309.322 306.422 299.973C305.925 286.859 293.236 279.534 283.052 273.95C271.831 268.767 264.811 257.655 261.117 246.229C254.335 224.988 255.944 201.714 262.91 180.744C266.074 170.465 271.982 161.375 275.859 151.388C283.44 133.275 288.257 112.684 282.803 93.3371V93.3371C280.107 82.945 285.376 72.5165 295.194 76.8604C304.662 81.0499 313.327 87.3129 320.689 94.4191C330.506 104.244 338.638 116.731 340.074 130.862C344.913 164.6 365.162 196.314 395.197 212.869C410.089 220.887 427.142 225.919 444.141 224.404C453.58 223.17 460.967 213.941 460.028 204.43C459.704 188.556 444.638 177.92 443.85 162.176C442.327 142.7 451.377 124.175 462.404 108.724C470.688 97.4054 481.018 87.7452 492.859 80.2445C510.29 68.8939 527.008 54.7734 536.036 35.5889V35.5889Z" fill="url(#paint0_linear_1_2)"/>
<defs>
<linearGradient id="paint0_linear_1_2" x1="-0.872559" y1="-0.211505" x2="97946.8" y2="45586.8" gradientUnits="userSpaceOnUse">
<stop stop-color="#EB4C00"/>
<stop offset="1" stop-color="#F2A900"/>
</linearGradient>
</defs>
</svg>
